<svg width="24" height="24" viewBox="0 0 24 24" fill="none" xmlns="http://www.w3.org/2000/svg">
<path fill-rule="evenodd" clip-rule="evenodd" d="M7.05025 3.05025C8.363 1.7375 10.1435 1 12 1C13.8565 1 15.637 1.7375 16.9497 3.05025C18.2625 4.36301 19 6.14349 19 8C19 10.9127 19.732 12.8439 20.4994 14.0771L20.5112 14.096C20.8685 14.6703 21.151 15.1243 21.3414 15.4547C21.4368 15.6202 21.5238 15.7797 21.5881 15.9215C21.6203 15.9922 21.6562 16.079 21.6843 16.1733C21.7076 16.2515 21.752 16.4187 21.7353 16.6223C21.7242 16.7591 21.6963 16.9928 21.5621 17.2343C21.428 17.4758 21.2442 17.623 21.134 17.7047C20.8837 17.8904 20.5963 17.9329 20.5003 17.947L20.4959 17.9477C20.3485 17.9695 20.1812 17.9804 20.0125 17.9869C19.6772 18 19.2131 18 18.6358 18H5.36414C4.78692 18 4.32278 18 3.98752 17.9869C3.81877 17.9804 3.65149 17.9695 3.50408 17.9477L3.49965 17.947C3.40371 17.9329 3.11629 17.8904 2.866 17.7047C2.75576 17.623 2.57204 17.4758 2.43788 17.2343C2.30373 16.9928 2.27584 16.7591 2.26465 16.6223C2.248 16.4187 2.2924 16.2515 2.31571 16.1733C2.3438 16.079 2.37974 15.9922 2.41187 15.9215C2.47624 15.7797 2.56317 15.6202 2.65859 15.4547C2.84901 15.1243 3.13147 14.6703 3.48878 14.0961L3.50061 14.0771C4.26799 12.8439 5 10.9127 5 8C5 6.14348 5.73749 4.36301 7.05025 3.05025ZM12 3C10.6739 3 9.40214 3.52678 8.46446 4.46447C7.52678 5.40215 7 6.67392 7 8C7 11.2677 6.17294 13.5681 5.19871 15.1337C4.98586 15.4758 4.80822 15.7614 4.66308 15.9988C4.86966 16 5.10998 16 5.38885 16H18.6111C18.89 16 19.1303 16 19.3369 15.9988C19.1918 15.7614 19.0141 15.4758 18.8013 15.1337C17.8271 13.5681 17 11.2677 17 8C17 6.67392 16.4732 5.40215 15.5355 4.46447C14.5978 3.52678 13.3261 3 12 3ZM8.60443 20.3383C8.9699 19.9242 9.60184 19.8848 10.0159 20.2503C10.5454 20.7176 11.2385 21 12 21C12.7615 21 13.4546 20.7176 13.9841 20.2503C14.3982 19.8848 15.0301 19.9242 15.3956 20.3383C15.761 20.7523 15.7216 21.3843 15.3076 21.7497C14.4267 22.5272 13.2674 23 12 23C10.7326 23 9.57325 22.5272 8.69244 21.7497C8.27837 21.3843 8.23897 20.7523 8.60443 20.3383Z" fill="#1E2031"/>
</svg>
